<svg width="832" height="131" viewBox="0 0 832 131" fill="none" xmlns="http://www.w3.org/2000/svg">
<path d="M2.49998 109C1.69998 117.8 8.83331 125 12.5 127.5C26.1 134.3 36.5 120.333 40 112.5C43.6 89.7 81.5 84.6667 100 85C141.6 83 155.667 102.5 157.5 112.5C166.3 138.5 181.422 128.763 188.588 120.93C201.388 87.3296 182 35.5 170 13.5C162 0.300038 149.94 0.47367 145.44 2.97367C103.83 20.7234 71.5313 11.1211 53 4.50003C44.6 0.10003 37.8333 2.6667 35.5 4.50003C11.5 16.9 3.49999 79.3334 2.49998 109Z" fill="#FC4545" stroke="black" stroke-width="3"/>
<path d="M186.734 105.581C184.552 61.165 174.422 34.5154 167.409 20.1776C161.964 9.04535 154.121 4.84191 150.577 4.03397C171.272 -4.01855 185.59 46.3506 190.163 72.5417C194.059 121.321 191.461 116.127 188.604 122.256C184.864 128.74 175.305 129.425 170.994 128.958L172.708 127.399C184.552 124.033 186.994 111.451 186.734 105.581Z" fill="#C53939"/>
<path d="M128.152 12.3648C117.643 16.153 105.986 14.8053 101.251 14.4998C106.506 14.4998 120.71 12.1465 126.871 10.0589C136.616 4.65902 144.157 3.32058 149.503 1.9458C153.78 0.845977 153.734 4.06739 153.428 4.98391C142.889 6.05318 145.062 8.5217 128.152 12.3648Z" fill="#CAC5CD"/>
<path d="M148.387 92.3582C133.723 82.9487 107.654 83.1422 96.4517 84.4151C138.611 82.7043 153.836 99.6903 156.178 108.397C158.011 114.507 162.997 122.756 165.9 126.116L172.476 129.364L175.73 126.116C171.331 124.894 166.259 116.34 164.274 112.216C160.485 101.34 152.104 94.4458 148.387 92.3582Z" fill="#CAC5CD"/>
<path d="M21.2555 126.223L17.5125 128.17C13.7196 128.17 5.47506 125.655 2.83999 115.593C0.204924 105.532 6.33345 70.0785 9.7271 53.6093C20.9561 13.6342 26.6953 11.9373 35.1795 4.95043C39.1321 3.99223 42.7653 4.55118 43.1146 4.95043C19.5188 14.8918 11.0247 75.5682 9.7271 104.664C8.05024 117.36 16.714 124.327 21.2555 126.223Z" fill="#CAC5CD"/>
<path d="M32.5794 110.513C27.9208 121.743 19.7839 127.328 16.3924 128.62C31.5613 131.047 36.0236 119.116 41.2694 108.394C49.0359 92.52 72.7535 85.802 84.3493 84.3262C49.7236 82.87 35.4087 101.177 32.5794 110.513Z" fill="#C53939"/>
<path d="M105.125 35.25C105.125 31.25 101.429 27.8932 99.5182 26.875C102.411 25.8205 107.5 29.375 107.625 35.25C107.75 41.125 100.387 43.5833 99.5182 42.75C100.929 42.0417 105.125 39.25 105.125 35.25Z" fill="#FF4F4F"/>
<path d="M2.49998 109C1.69998 117.8 8.83331 125 12.5 127.5C26.1 134.3 36.5 120.333 40 112.5C43.6 89.7 81.5 84.6667 100 85C141.6 83 155.667 102.5 157.5 112.5C166.3 138.5 181.647 128.788 188.814 120.955C202.396 94.0399 182 35.5 170 13.5C162 0.300038 149.94 0.47367 145.44 2.97367C103.83 20.7234 71.5313 11.1211 53 4.50003C44.6 0.10003 37.8333 2.6667 35.5 4.50003C11.5 16.9 3.49999 79.3334 2.49998 109Z" stroke="black" stroke-width="3"/>
<ellipse cx="52.9426" cy="51.5538" rx="21.8577" ry="22.0257" fill="black"/>
<path d="M46.0628 31.5993C46.0628 43.1596 37.3992 43.7942 33.4047 44.0292C30.6979 47.6383 32.5589 54.7171 33.4047 58.1945C45.529 58.1945 45.8109 66.9149 45.529 71.6612C50.717 73.9168 57.3842 72.601 60.1568 71.6612C59.0289 60.0445 68.0909 58.5817 72.8826 58.7823C75.1383 52.5792 73.867 46.7148 72.9272 44.3181C62.0999 44.3181 60.1122 36.8453 60.1122 31.3471C54.473 29.7963 49.4813 30.2996 46.0628 31.5993Z" fill="#4AE69F"/>
<path d="M91.8318 40.8431C92.1744 41.2762 92.8033 41.3496 93.2365 41.007C93.6696 40.6644 93.743 40.0355 93.4004 39.6023L91.8318 40.8431ZM95.2548 28.1044C95.7252 27.815 95.8719 27.1991 95.5826 26.7287C95.2932 26.2582 94.6773 26.1115 94.2069 26.4008L95.2548 28.1044ZM93.4004 39.6023C92.5223 38.4922 91.708 36.3519 91.7829 34.0912C91.8559 31.8854 92.7679 29.6341 95.2548 28.1044L94.2069 26.4008C91.0546 28.3399 89.8754 31.2665 89.784 34.025C89.6944 36.7287 90.6422 39.3391 91.8318 40.8431L93.4004 39.6023Z" fill="black"/>
<circle cx="130.399" cy="51.3743" r="5.78017" fill="#7ECDF4"/>
<circle cx="146.48" cy="35.1228" r="5.78017" fill="#FFFF87"/>
<path d="M168.473 51.3743C168.473 54.5666 165.885 57.1544 162.693 57.1544C159.501 57.1544 156.913 54.5666 156.913 51.3743C156.913 48.182 159.501 45.5941 162.693 45.5941C165.885 45.5941 168.473 48.182 168.473 51.3743Z" fill="#F19049"/>
<path d="M152.261 67.7279C152.261 70.9202 149.673 73.5081 146.48 73.5081C143.288 73.5081 140.7 70.9202 140.7 67.7279C140.7 64.5356 143.288 61.9477 146.48 61.9477C149.673 61.9477 152.261 64.5356 152.261 67.7279Z" fill="#4AE69F"/>
<path d="M123.617 51.2763C123.326 49.0454 124.555 44.1422 130.375 44.375C136.195 44.6078 137.099 49.2394 137.002 51.2763C136.825 54.9976 133.685 59.8311 126.235 56.8049M139.742 35.4013C139.451 33.1705 140.68 28.2672 146.5 28.5C152.32 28.7328 153.224 33.3644 153.127 35.4013C152.95 39.1226 149.81 43.9561 142.361 40.9299M139.742 67.7763C139.451 65.5455 140.68 60.6422 146.5 60.875C152.32 61.1078 153.224 65.7394 153.127 67.7763C152.95 71.4976 149.81 76.3311 142.361 73.3049M155.992 51.2763C155.701 49.0455 156.93 44.1422 162.75 44.375C168.57 44.6078 169.474 49.2394 169.377 51.2763C169.2 54.9976 166.06 59.8311 158.611 56.8049" stroke="black" stroke-width="3" stroke-linecap="round" stroke-linejoin="round"/>
<path d="M99.4758 25.4079C98.9242 25.4346 98.4986 25.9034 98.5253 26.455C98.552 27.0067 99.0208 27.4322 99.5725 27.4055L99.4758 25.4079ZM106.989 35.2599C107.051 35.8087 107.547 36.2032 108.095 36.1411C108.644 36.079 109.039 35.5837 108.977 35.035L106.989 35.2599ZM96.4322 41.8001C95.9797 41.4834 95.3562 41.5934 95.0395 42.0459C94.7228 42.4983 94.8328 43.1219 95.2852 43.4386L96.4322 41.8001ZM108.054 39.3535C108.274 38.8472 108.043 38.2579 107.537 38.0372C107.03 37.8165 106.441 38.048 106.22 38.5543L108.054 39.3535ZM99.5725 27.4055C100.86 27.3433 102.509 27.627 103.918 28.714C105.305 29.7841 106.59 31.7331 106.989 35.2599L108.977 35.035C108.53 31.0898 107.042 28.598 105.14 27.1305C103.259 25.6798 101.102 25.3292 99.4758 25.4079L99.5725 27.4055ZM95.2852 43.4386C96.9487 44.603 99.461 45.0943 101.871 44.5653C104.328 44.0259 106.718 42.4176 108.054 39.3535L106.22 38.5543C105.159 40.9884 103.32 42.1997 101.442 42.6119C99.5168 43.0345 97.5883 42.6094 96.4322 41.8001L95.2852 43.4386Z" fill="black"/>
<path d="M52.0142 28.3804C60.8489 28.2865 77.9544 33.8505 75.6987 56.8583M74.8528 58.973C71.8923 69.8284 51.7322 85.2234 33.6868 64.4712M31.5721 60.3828C26.3558 50.7962 32.6998 31.341 47.9258 29.2263" stroke="black" stroke-width="2" stroke-linecap="round" stroke-linejoin="round"/>
<path d="M48.3486 71.8021C49.7729 72.6701 56.7604 72.648 59.9089 71.8021C54.1569 74.6217 47.8316 72.977 45.388 71.8021C46.4031 61.3133 37.5401 58.4091 32.9818 58.2681C30.3878 53.7568 31.901 46.8957 32.9818 44.0292C44.1474 44.0292 45.9049 35.7584 45.388 31.623C47.5309 30.2696 52.108 30.1192 54.1287 30.2132C52.2114 30.326 49.4764 31.2 48.3486 31.623C49.0253 42.2246 40.5477 44.3111 36.2244 44.0292C33.0664 50.909 34.9086 56.3884 36.2244 58.2681C47.0516 58.4937 48.8185 67.3848 48.3486 71.8021Z" fill="white"/>
<path d="M57.183 71.7949L54.2656 72.4951C55.3858 73.0552 58.7389 72.2617 60.2754 71.7949C59.2485 60.4523 68.3272 58.4724 72.995 58.9002C75.3756 52.2254 73.9869 46.3167 72.995 44.1968C61.9324 44.1968 59.9058 35.6003 60.2754 31.3021C55.5142 29.6684 52.9236 30.0768 52.2234 30.4852C54.6974 30.2985 56.4439 30.952 57.0079 31.3021C56.5411 41.9913 65.4877 44.3524 70.0193 44.1968C72.2598 51.4318 70.7194 57.0137 69.6692 58.9002H67.2186C57.2763 60.6273 56.3855 68.2163 57.183 71.7949Z" fill="#26C27B"/>
<path d="M89.0222 68.7093C84.1059 68.5507 82.7446 71.0221 82.6785 72.2776C82.6785 73.467 83.9473 75.8855 89.0222 76.0441C94.0971 76.2027 95.4979 73.5992 95.564 72.2776C95.4318 71.1542 93.9385 68.8679 89.0222 68.7093Z" fill="#DCDCDC" stroke="black" stroke-width="2"/>
<path d="M109.472 68.7093C104.555 68.5507 103.194 71.0221 103.128 72.2776C103.128 73.467 104.397 75.8855 109.472 76.0441C114.546 76.2027 115.947 73.5992 116.013 72.2776C115.881 71.1542 114.388 68.8679 109.472 68.7093Z" fill="#DCDCDC" stroke="black" stroke-width="2"/>
<path d="M217.789 114.397V48.1575H263.101V60.6375H231.613V76.9575H260.221V89.4375H231.613V114.397H217.789ZM273.852 114.397V48.1575H287.676V101.917H316.284V114.397H273.852ZM325.486 98.2695V64.2855C325.486 53.5335 330.862 48.1575 341.614 48.1575H363.502C374.254 48.1575 379.63 53.5335 379.63 64.2855V98.2695C379.63 109.021 374.254 114.397 363.502 114.397H341.614C330.862 114.397 325.486 109.021 325.486 98.2695ZM339.31 99.0375C339.31 100.957 340.27 101.917 342.19 101.917H362.926C364.846 101.917 365.806 100.957 365.806 99.0375V63.5175C365.806 61.5975 364.846 60.6375 362.926 60.6375H342.19C340.27 60.6375 339.31 61.5975 339.31 63.5175V99.0375ZM389.23 50.7495L391.15 48.1575H402.478L413.134 101.917H414.19L425.71 54.4935H439.15L450.67 101.917H451.726L462.382 48.1575H473.71L475.63 50.7495L462.67 114.397H440.686L432.43 79.3575L424.174 114.397H402.19L389.23 50.7495ZM508.298 98.2695V64.2855C508.298 53.5335 513.674 48.1575 524.426 48.1575H552.17L558.602 53.1495V60.6375H525.002C523.082 60.6375 522.122 61.5975 522.122 63.5175V99.0375C522.122 100.957 523.082 101.917 525.002 101.917H546.698V86.5575H534.026V74.0775H560.522V114.397H524.426C513.674 114.397 508.298 109.021 508.298 98.2695ZM568.177 111.805L587.857 48.1575H608.977L628.657 111.805L626.929 114.397H615.409L611.377 100.957H585.457L581.425 114.397H569.905L568.177 111.805ZM589.201 88.4775H607.633L599.185 60.6375H597.649L589.201 88.4775ZM638.258 114.397V48.1575H654.77L673.49 88.1895L692.21 48.1575H708.722V114.397H694.898V72.5415L679.346 105.757H667.634L652.082 72.5415V114.397H638.258ZM724.508 114.397V48.1575H769.82V60.6375H738.332V74.0775H766.94V86.5575H738.332V101.917H769.82V114.397H724.508ZM779.566 109.405V101.917H809.326C811.246 101.917 812.206 100.957 812.206 99.0375V92.0295C812.206 90.2375 811.406 89.1815 809.806 88.8615L791.086 85.1175C783.406 83.5815 779.566 78.4295 779.566 69.6615V64.2855C779.566 53.5335 784.942 48.1575 795.694 48.1575H817.678L824.11 53.1495V60.6375H796.27C794.35 60.6375 793.39 61.5975 793.39 63.5175V69.7575C793.39 71.5495 794.19 72.6055 795.79 72.9255L814.51 76.6695C822.19 78.2055 826.03 83.3575 826.03 92.1255V98.2695C826.03 109.021 820.654 114.397 809.902 114.397H785.998L779.566 109.405Z" fill="#CAC5CD"/>
</svg>
